<svg xmlns="http://www.w3.org/2000/svg"  viewBox="0 0 100 100" width="100px" height="100px"><path d="M23.5,93C16.607,93,11,87.393,11,80.5v-57C11,16.607,16.607,11,23.5,11h57C87.393,11,93,16.607,93,23.5v57 C93,87.393,87.393,93,80.5,93H23.5z" opacity=".35"/><path fill="#f2f2f2" d="M21.5,91C14.607,91,9,85.393,9,78.5v-57C9,14.607,14.607,9,21.5,9h57C85.393,9,91,14.607,91,21.5v57 C91,85.393,85.393,91,78.5,91H21.5z"/><path fill="#707cc0" d="M15.5,78.5v-57c0-3.314,2.686-6,6-6h57c3.314,0,6,2.686,6,6v57c0,3.314-2.686,6-6,6h-57 C18.186,84.5,15.5,81.814,15.5,78.5z"/><path fill="#40396e" d="M78.5,86h-57c-4.136,0-7.5-3.364-7.5-7.5v-57c0-4.136,3.364-7.5,7.5-7.5h57 c4.136,0,7.5,3.364,7.5,7.5v57C86,82.636,82.636,86,78.5,86z M21.5,17c-2.481,0-4.5,2.019-4.5,4.5v57c0,2.481,2.019,4.5,4.5,4.5h57 c2.481,0,4.5-2.019,4.5-4.5v-57c0-2.481-2.019-4.5-4.5-4.5H21.5z"/><path fill="#d84178" fill-rule="evenodd" d="M59.837,43.591c2.977,2.127,6.624,3.377,10.563,3.377v-7.576 c-0.746,0-1.488-0.077-2.218-0.232v5.963c-3.938,0-7.584-1.252-10.563-3.377v15.459c0,7.733-6.273,14.002-14.01,14.002 c-2.886,0-5.57-0.873-7.799-2.369c2.544,2.599,6.092,4.212,10.017,4.212c7.737,0,14.01-6.269,14.01-14.002V43.591L59.837,43.591z M62.574,35.949c-1.521-1.66-2.52-3.808-2.737-6.182v-0.975h-2.102C58.264,31.808,60.07,34.386,62.574,35.949L62.574,35.949z M40.705,62.905c-0.85-1.114-1.309-2.476-1.307-3.878c0-3.538,2.869-6.405,6.409-6.405c0.659,0,1.315,0.1,1.944,0.3v-7.744 c-0.735-0.1-1.475-0.144-2.218-0.128v6.027c-0.629-0.2-1.284-0.3-1.946-0.3c-3.54,0-6.409,2.867-6.409,6.405 C37.18,59.684,38.614,61.851,40.705,62.905z" clip-rule="evenodd"/><path fill="#f2f2f2" fill-rule="evenodd" d="M57.62,41.746c2.977,2.127,6.624,3.377,10.563,3.377V39.16 c-2.199-0.468-4.144-1.617-5.608-3.213c-2.505-1.562-4.309-4.139-4.837-7.155h-5.521v30.256c-0.013,3.527-2.877,6.383-6.409,6.383 c-2.082,0-3.931-0.992-5.102-2.527c-2.091-1.054-3.525-3.221-3.525-5.721c0-3.538,2.869-6.405,6.409-6.405 c0.678,0,1.332,0.106,1.946,0.3v-6.026c-7.601,0.157-13.713,6.364-13.713,13.999c0,3.812,1.522,7.267,3.993,9.79 c2.229,1.496,4.913,2.369,7.799,2.369c7.737,0,14.01-6.269,14.01-14.002L57.62,41.746L57.62,41.746z" clip-rule="evenodd"/><g><path fill="#70bfff" fill-rule="evenodd" d="M68.182,39.162v-1.613c-1.983,0.004-3.925-0.552-5.608-1.602 C64.063,37.577,66.023,38.701,68.182,39.162z M57.735,28.792c-0.051-0.289-0.089-0.578-0.115-0.871v-0.975h-7.624v30.258 c-0.011,3.527-2.877,6.383-6.409,6.383c-1.037,0-2.015-0.246-2.882-0.684c1.171,1.536,3.02,2.527,5.102,2.527 c3.532,0,6.396-2.856,6.409-6.383V28.792H57.735z M45.533,45.051v-1.717c-0.637-0.087-1.279-0.13-1.923-0.13 c-7.739,0-14.01,6.269-14.01,14.002c0,4.849,2.465,9.121,6.211,11.634c-2.471-2.524-3.993-5.978-3.993-9.79 C31.818,51.415,37.932,45.208,45.533,45.051z" clip-rule="evenodd"/></g></svg>